<svg id="Слой_1" data-name="Слой 1" xmlns="http://www.w3.org/2000/svg" viewBox="0 0 400.13 167.37"><defs><style>.cls-1,.cls-2{fill:none;stroke:#f1eedf;stroke-width:10px;}.cls-1{stroke-linecap:round;stroke-linejoin:round;}.cls-2{stroke-miterlimit:10;}</style></defs><path class="cls-1" d="M317,328.44H444.36" transform="translate(-49.23 -166.13)"/><path class="cls-1" d="M54.23,328.44H80.79" transform="translate(-49.23 -166.13)"/><path class="cls-2" d="M318.47,328.5H420.53V216.13a45,45,0,0,0-45-45H125.45a45,45,0,0,0-45,45V328.5" transform="translate(-49.23 -166.13)"/><path class="cls-2" d="M316.36,328.75V216.38a45,45,0,0,0-45-45H125.45a45,45,0,0,0-45,45V328.75" transform="translate(-49.23 -166.13)"/><line class="cls-1" x1="286.45" y1="83.31" x2="349.77" y2="83.31"/><line class="cls-1" x1="317.91" y1="114.97" x2="318.3" y2="51.65"/></svg>