<svg id="Слой_8" data-name="Слой 8" xmlns="http://www.w3.org/2000/svg" viewBox="0 0 405.57 400.5"><defs><style>.cls-1,.cls-2{fill:none;stroke:#f1eedf;stroke-width:10px;}.cls-1{stroke-miterlimit:10;}.cls-2{stroke-linecap:round;stroke-linejoin:round;}</style></defs><path class="cls-1" d="M358.91,250.28c.37,21.13.53,71.42-33.7,119.36-5.43,7.61-53.89,73.19-135.57,75.83-7.79.25-56.25,1.15-99.32-30.38-12.65-9.26-27.41-20.37-34.85-40.74-8.39-23-6.33-54.56,10.34-73.65,7.75-8.87,15.18-11.06,26-26,7.91-10.91,12.26-16.91,13.28-24.51,3.5-26.27-37.67-35.7-49-77.11a79,79,0,0,1,1.11-44.37c7.6-22.89,24.65-35.49,37.18-44.48,42.37-30.4,89.51-29.32,95.24-29.1,70.16,2.58,113.73,54.37,123.83,66.38,5.8,6.89,26.33,32.5,37.66,72" transform="translate(-45.66 -50.03)"/><path class="cls-2" d="M446.23,116.87A1245.26,1245.26,0,0,0,250.91,293.55l37.54,42.9c29.12-35.27,59-73.87,88.85-115.92C402.55,185,425.46,150.3,446.23,116.87Z" transform="translate(-45.66 -50.03)"/><path class="cls-2" d="M166.4,389.55c4.78,3.18,31.36,20.21,64.86,12.26,5.22-1.24,35.6-8.45,50-36.77a67.23,67.23,0,0,0,7.15-28.59l-37.54-42.9a41,41,0,0,0-15.06-2c-13,.7-25.32,7.74-32.2,17.78-1.29,1.88-2.72,4.35-8.14,30.22-4.4,21-4.51,24.39-7.66,30.13C182.5,379.39,174.07,385.55,166.4,389.55Z" transform="translate(-45.66 -50.03)"/><circle class="cls-2" cx="71.91" cy="104.86" r="33.19"/><circle class="cls-2" cx="157.04" cy="65.23" r="33.19"/><circle class="cls-2" cx="231.04" cy="129.23" r="33.19"/><circle class="cls-2" cx="71.04" cy="300.23" r="33.19"/></svg>