<svg xmlns="http://www.w3.org/2000/svg" viewBox="0 0 399.11 399.11"><defs><style>.cls-1,.cls-2{fill:none;}.cls-2{stroke:#f1eedf;stroke-linecap:round;stroke-linejoin:round;stroke-width:10px;}</style></defs><g id="Слой_2" data-name="Слой 2"><path class="cls-1" d="M50.15,100.84" transform="translate(-50.6 -49.83)"/><path class="cls-2" d="M444.7,144.79V413.94c0,2-.2,12.62-30,30H85.6a30,30,0,0,1-30-30V84.83a30,30,0,0,1,30-30H353.88" transform="translate(-50.6 -49.83)"/><path class="cls-2" d="M123.85,203.64H274.23a30,30,0,0,1,30,30V394.11a0,0,0,0,1,0,0H93.85a0,0,0,0,1,0,0V233.64A30,30,0,0,1,123.85,203.64Z"/><path class="cls-2" d="M185.17,54.87H315.64a30,30,0,0,1,30,30v92.26a0,0,0,0,1,0,0H155.17a0,0,0,0,1,0,0V84.87A30,30,0,0,1,185.17,54.87Z" transform="translate(450.21 182.17) rotate(180)"/><path class="cls-2" d="M352.64,54.87l92.06,89.92" transform="translate(-50.6 -49.83)"/><rect class="cls-2" x="277.81" y="76.98" width="45.7" height="77.11" rx="15" transform="translate(550.72 181.23) rotate(180)"/></g></svg>