<svg xmlns="http://www.w3.org/2000/svg" viewBox="0 0 398.86 398.93"><defs><style>.cls-1{fill:none;stroke:#f1eedf;stroke-linecap:round;stroke-linejoin:round;stroke-width:10px;}</style></defs><g id="Слой_3" data-name="Слой 3"><path class="cls-1" d="M239.33,445c9.76-12.34,25.49-32.15,45-56.47,45-56,67.51-84,88.23-108.62,0,0,21.28-25.26,63.85-79.15l0,0,.31-.4c8.06-10.88,7.34-21.26,7.34-21.26-.83-12.12-10.74-19.43-12.2-20.47l-68.41-55.19L313.18,62.78a30.64,30.64,0,0,0-22-6.48,29.94,29.94,0,0,0-20.16,11l-63.8,79.09L110.83,265.83,62,326.4c-2.09,2.86-8.06,11.83-6.38,22.86,1.3,8.49,6.56,14.43,10.9,19.33,2.32,2.63,4.49,4.11,10.34,9.29,3.9,3.46,9.54,8.12,19.58,15.54,6.27,4.63,10.83,8.4,20.11,15.72,7.81,6.15,14.83,11.8,28.87,23.1,6.43,5.17,11.7,9.42,15.18,12.24" transform="translate(-50.29 -51.13)"/><path class="cls-1" d="M450.06,449.83" transform="translate(-50.29 -51.13)"/><line class="cls-1" x1="393.78" y1="393.7" x2="113.69" y2="393.93"/><line class="cls-1" x1="59.78" y1="218.25" x2="225.42" y2="348.18"/></g></svg>