<svg xmlns="http://www.w3.org/2000/svg" viewBox="0 0 400.89 399.96"><defs><style>.cls-1,.cls-2,.cls-3{fill:none;}.cls-2,.cls-3{stroke:#f1eedf;stroke-width:10px;}.cls-2{stroke-linecap:round;stroke-linejoin:round;}.cls-3{stroke-miterlimit:10;}</style></defs><g id="Слой_2" data-name="Слой 2"><path class="cls-1" d="M50.15,100.84" transform="translate(-49.06 -49.06)"/><line class="cls-2" x1="5" y1="55.13" x2="395.89" y2="55.13"/><path class="cls-3" d="M54.87,55.13H345.94a0,0,0,0,1,0,0V365a30,30,0,0,1-30,30H84.87a30,30,0,0,1-30-30V55.13A0,0,0,0,1,54.87,55.13Z"/><path class="cls-3" d="M126.62,5h151a20,20,0,0,1,20,20V55.13a0,0,0,0,1,0,0h-191a0,0,0,0,1,0,0V25A20,20,0,0,1,126.62,5Z"/><line class="cls-2" x1="202.11" y1="107.15" x2="200.4" y2="325.45"/><line class="cls-2" x1="125.17" y1="122.98" x2="123.47" y2="341.28"/><line class="cls-2" x1="283.17" y1="122.98" x2="281.47" y2="341.28"/></g></svg>