# This file uses centimeters as units for non-parametric coordinates.

mtllib stick.mtl
g default
v 0.707107 -3.420188 -0.707107
v 0.000000 -3.420188 -1.000000
v -0.707107 -3.420188 -0.707107
v -1.000000 -3.420188 0.000000
v -0.707107 -3.420188 0.707107
v 0.000000 -3.420187 1.000000
v 0.707107 -3.420187 0.707107
v 1.000000 -3.420188 -0.000001
v 0.707975 34.588638 -0.702953
v 0.001302 34.588638 -0.993769
v -0.706239 34.588638 -0.702953
v -0.999132 34.588638 0.004154
v -0.707107 34.588638 0.707107
v 0.000000 34.588638 1.000000
v 0.707107 34.588638 0.707107
v 1.000868 34.588638 0.004153
v 1.263108 -3.420188 -1.263108
v 0.000000 -3.420188 -1.786304
v -1.263108 -3.420188 -1.263108
v -1.786304 -3.420188 0.000000
v -1.263108 -3.420188 1.263108
v -0.000000 -3.420188 1.786304
v 1.263108 -3.420188 1.263108
v 1.786304 -3.420188 -0.000001
v 1.263108 -4.348301 -1.263108
v 0.000000 -4.348301 -1.786304
v -1.263108 -4.348301 -1.263108
v -1.786304 -4.348301 -0.000000
v -1.263108 -4.348301 1.263108
v -0.000000 -4.348301 1.786304
v 1.263108 -4.348301 1.263108
v 1.786304 -4.348301 -0.000001
v 3.608490 -4.348299 -3.608490
v -0.000000 -4.348299 -5.103175
v -3.608490 -4.348300 -3.608489
v -5.103175 -4.348300 -0.000000
v -3.608490 -4.348299 3.608489
v -0.000000 -4.348300 5.103175
v 3.608489 -4.348301 3.608490
v 5.103175 -4.348300 -0.000001
v 3.608490 -5.367948 -3.608490
v -0.000000 -5.367948 -5.103175
v -3.608490 -5.367949 -3.608489
v -5.103175 -5.367949 -0.000000
v -3.608490 -5.367948 3.608489
v -0.000000 -5.367949 5.103175
v 3.608489 -5.367949 3.608489
v 5.103175 -5.367949 -0.000001
v 1.263108 -3.627393 -1.263108
v 0.000000 -3.627393 -1.786304
v -1.263108 -3.627393 -1.263108
v -1.786304 -3.627393 -0.000000
v -1.263108 -3.627393 1.263108
v -0.000000 -3.627393 1.786304
v 1.263108 -3.627393 1.263108
v 1.786304 -3.627393 -0.000000
v 1.263108 -4.183133 -1.263109
v 0.000000 -4.183133 -1.786304
v -1.263108 -4.183133 -1.263108
v -1.786304 -4.183133 -0.000000
v -1.263108 -4.183133 1.263108
v -0.000000 -4.183133 1.786304
v 1.263108 -4.183133 1.263108
v 1.786304 -4.183133 -0.000000
v 3.608490 -4.497454 -3.608490
v -0.000000 -4.497454 -5.103175
v -3.608490 -4.497456 -3.608489
v -5.103175 -4.497456 -0.000000
v -3.608490 -4.497454 3.608489
v -0.000000 -4.497456 5.103175
v 3.608489 -4.497456 3.608490
v 5.103175 -4.497456 -0.000000
v 3.608490 -5.213312 -3.608491
v -0.000000 -5.213312 -5.103175
v -3.608490 -5.213313 -3.608489
v -5.103175 -5.213313 -0.000000
v -3.608490 -5.213312 3.608489
v -0.000000 -5.213313 5.103175
v 3.608489 -5.213314 3.608490
v 5.103175 -5.213313 -0.000000
v 0.825835 -3.420188 -0.825835
v 0.000000 -3.420188 -1.167906
v -0.825835 -3.420188 -0.825835
v -1.167906 -3.420188 0.000000
v -0.825835 -3.420188 0.825835
v -0.000000 -3.420187 1.167907
v 0.825835 -3.420187 0.825835
v 1.167907 -3.420188 -0.000000
v 0.707107 -3.297624 -0.707108
v 1.000000 -3.297624 0.000000
v 0.707107 -3.297624 0.707106
v 0.000000 -3.297624 1.000000
v -0.707107 -3.297624 0.707107
v -1.000000 -3.297624 0.000000
v -0.707107 -3.297624 -0.707107
v 0.000000 -3.297624 -1.000000
v 0.902122 -5.367948 -0.902122
v -0.000000 -5.367948 -1.275793
v -0.902122 -5.367948 -0.902122
v -1.275794 -5.367948 0.000000
v -0.902123 -5.367948 0.902123
v -0.000000 -5.367948 1.275794
v 0.902122 -5.367948 0.902123
v 1.275794 -5.367948 0.000000
v -0.000000 -5.367948 0.000000
v 3.507447 -5.367948 -3.507447
v -0.000000 -5.367948 -4.960279
v -3.507447 -5.367949 -3.507447
v -4.960279 -5.367949 -0.000000
v -3.507447 -5.367948 3.507447
v -0.000000 -5.367949 4.960279
v 3.507447 -5.367949 3.507447
v 4.960279 -5.367949 -0.000000
v -0.206105 34.588638 -0.495790
v 0.500219 34.588638 -0.203221
v -0.499980 34.588638 0.209799
v 0.207361 34.588638 0.501217
v 0.707972 34.467934 -0.702966
v 1.000865 34.467934 0.004140
v 0.707107 34.467934 0.707107
v 0.000000 34.467934 1.000000
v -0.707107 34.467934 0.707107
v -0.999135 34.467934 0.004141
v -0.706242 34.467934 -0.702966
v 0.001298 34.467934 -0.993789
vt 0.375000 0.312500
vt 0.406250 0.312500
vt 0.437500 0.312500
vt 0.468750 0.312500
vt 0.500000 0.312500
vt 0.531250 0.312500
vt 0.562500 0.312500
vt 0.593750 0.312500
vt 0.625000 0.312500
vt 0.375000 0.687500
vt 0.406250 0.687500
vt 0.437500 0.687500
vt 0.468750 0.687500
vt 0.500000 0.687500
vt 0.531250 0.687500
vt 0.562500 0.687500
vt 0.593750 0.687500
vt 0.625000 0.687500
vt 0.000000 0.000000
vt 1.000000 0.000000
vt 1.000000 1.000000
vt 0.000000 1.000000
vt 0.000000 0.000000
vt 1.000000 0.000000
vt 1.000000 1.000000
vt 0.000000 1.000000
vt 0.000000 0.000000
vt 1.000000 0.000000
vt 1.000000 1.000000
vt 0.000000 1.000000
vt 0.000000 0.000000
vt 1.000000 0.000000
vt 1.000000 1.000000
vt 0.000000 1.000000
vt 0.000000 0.000000
vt 1.000000 0.000000
vt 1.000000 1.000000
vt 0.000000 1.000000
vt 0.000000 0.000000
vt 1.000000 0.000000
vt 1.000000 1.000000
vt 0.000000 1.000000
vt 0.000000 0.000000
vt 1.000000 0.000000
vt 1.000000 1.000000
vt 0.000000 1.000000
vt 0.000000 0.000000
vt 1.000000 0.000000
vt 1.000000 1.000000
vt 0.000000 1.000000
vt 0.000000 0.000000
vt 1.000000 0.000000
vt 1.000000 1.000000
vt 0.000000 1.000000
vt 0.000000 0.000000
vt 1.000000 0.000000
vt 1.000000 1.000000
vt 0.000000 1.000000
vt 0.000000 0.000000
vt 1.000000 0.000000
vt 1.000000 1.000000
vt 0.000000 1.000000
vt 0.000000 0.000000
vt 1.000000 0.000000
vt 1.000000 1.000000
vt 0.000000 1.000000
vt 0.000000 0.000000
vt 1.000000 0.000000
vt 1.000000 1.000000
vt 0.000000 1.000000
vt 0.000000 0.000000
vt 1.000000 0.000000
vt 1.000000 1.000000
vt 0.000000 1.000000
vt 0.000000 0.000000
vt 1.000000 0.000000
vt 1.000000 1.000000
vt 0.000000 1.000000
vt 0.000000 0.000000
vt 1.000000 0.000000
vt 1.000000 1.000000
vt 0.000000 1.000000
vt 0.000000 0.000000
vt 1.000000 0.000000
vt 1.000000 1.000000
vt 0.000000 1.000000
vt 0.000000 0.000000
vt 1.000000 0.000000
vt 1.000000 1.000000
vt 0.000000 1.000000
vt 0.000000 0.000000
vt 1.000000 0.000000
vt 1.000000 1.000000
vt 0.000000 1.000000
vt 0.000000 0.000000
vt 1.000000 0.000000
vt 1.000000 1.000000
vt 0.000000 1.000000
vt 0.000000 0.000000
vt 1.000000 0.000000
vt 1.000000 1.000000
vt 0.000000 1.000000
vt 0.000000 0.000000
vt 1.000000 0.000000
vt 1.000000 1.000000
vt 0.000000 1.000000
vt 0.000000 0.000000
vt 1.000000 0.000000
vt 1.000000 1.000000
vt 0.000000 1.000000
vt 0.000000 0.000000
vt 1.000000 0.000000
vt 1.000000 1.000000
vt 0.000000 1.000000
vt 0.000000 0.000000
vt 1.000000 0.000000
vt 1.000000 1.000000
vt 0.000000 1.000000
vt 0.000000 0.000000
vt 1.000000 0.000000
vt 1.000000 1.000000
vt 0.000000 1.000000
vt 0.000000 0.000000
vt 1.000000 0.000000
vt 1.000000 1.000000
vt 0.000000 1.000000
vt 0.000000 0.000000
vt 1.000000 0.000000
vt 1.000000 1.000000
vt 0.000000 1.000000
vt 0.000000 0.000000
vt 1.000000 0.000000
vt 1.000000 1.000000
vt 0.000000 1.000000
vt 0.000000 0.000000
vt 1.000000 0.000000
vt 1.000000 1.000000
vt 0.000000 1.000000
vt 0.000000 0.000000
vt 1.000000 0.000000
vt 1.000000 1.000000
vt 0.000000 1.000000
vt 0.000000 0.000000
vt 1.000000 0.000000
vt 1.000000 1.000000
vt 0.000000 1.000000
vt 0.000000 0.000000
vt 1.000000 0.000000
vt 0.000000 0.000000
vt 1.000000 0.000000
vt 0.000000 0.000000
vt 1.000000 0.000000
vt 0.000000 0.000000
vt 1.000000 0.000000
vt 0.000000 0.000000
vt 1.000000 0.000000
vt 0.000000 0.000000
vt 1.000000 0.000000
vt 0.000000 0.000000
vt 1.000000 0.000000
vt 0.000000 0.000000
vt 1.000000 0.000000
vt 1.000000 0.223254
vt 0.000000 0.223254
vt 1.000000 0.223254
vt 0.000000 0.223254
vt 1.000000 0.223254
vt 0.000000 0.223254
vt 1.000000 0.223254
vt 0.000000 0.223254
vt 1.000000 0.223254
vt 0.000000 0.223254
vt 1.000000 0.223254
vt 0.000000 0.223254
vt 1.000000 0.223254
vt 0.000000 0.223254
vt 1.000000 0.223254
vt 0.000000 0.223254
vt 1.000000 0.822039
vt 0.000000 0.822039
vt 1.000000 0.822039
vt 0.000000 0.822039
vt 1.000000 0.822039
vt 0.000000 0.822039
vt 1.000000 0.822039
vt 0.000000 0.822039
vt 1.000000 0.822039
vt 0.000000 0.822039
vt 1.000000 0.822039
vt 0.000000 0.822039
vt 1.000000 0.822039
vt 0.000000 0.822039
vt 1.000000 0.822039
vt 0.000000 0.822039
vt 1.000000 0.146281
vt 0.000000 0.146281
vt 1.000000 0.146281
vt 0.000000 0.146281
vt 1.000000 0.146281
vt 0.000000 0.146281
vt 1.000000 0.146281
vt 0.000000 0.146281
vt 1.000000 0.146281
vt 0.000000 0.146281
vt 1.000000 0.146281
vt 0.000000 0.146281
vt 1.000000 0.146281
vt 0.000000 0.146281
vt 1.000000 0.146281
vt 0.000000 0.146281
vt 1.000000 0.848345
vt 0.000000 0.848345
vt 1.000000 0.848345
vt 0.000000 0.848345
vt 1.000000 0.848345
vt 0.000000 0.848345
vt 1.000000 0.848345
vt 0.000000 0.848345
vt 1.000000 0.848345
vt 0.000000 0.848345
vt 1.000000 0.848345
vt 0.000000 0.848345
vt 1.000000 0.848345
vt 0.000000 0.848345
vt 1.000000 0.848345
vt 0.000000 0.848345
vt 1.000000 0.213539
vt 0.000000 0.213539
vt 1.000000 0.213539
vt 0.000000 0.213539
vt 1.000000 0.213539
vt 0.000000 0.213539
vt 1.000000 0.213539
vt 0.000000 0.213539
vt 1.000000 0.213539
vt 0.000000 0.213539
vt 1.000000 0.213539
vt 0.000000 0.213539
vt 1.000000 0.213539
vt 0.000000 0.213539
vt 1.000000 0.213539
vt 0.000000 0.213539
vt 0.625000 0.314380
vt 0.375000 0.314380
vt 0.593750 0.314380
vt 0.562500 0.314380
vt 0.531250 0.314380
vt 0.500000 0.314380
vt 0.468750 0.314380
vt 0.437500 0.314380
vt 0.406250 0.314380
vt 0.750000 0.500000
vt 0.250000 0.500000
vt 0.750000 0.500000
vt 0.250000 0.500000
vt 0.750000 0.500000
vt 0.250000 0.500000
vt 0.750000 0.500000
vt 0.250000 0.500000
vt 0.750000 0.500000
vt 0.250000 0.500000
vt 0.750000 0.500000
vt 0.250000 0.500000
vt 0.750000 0.500000
vt 0.250000 0.500000
vt 0.750000 0.500000
vt 0.250000 0.500000
vt 0.250000 0.500000
vt 0.990666 0.018668
vt 0.009334 0.018668
vt 0.990666 0.018668
vt 0.009334 0.018668
vt 0.990666 0.018668
vt 0.009334 0.018668
vt 0.990666 0.018668
vt 0.009334 0.018668
vt 0.990666 0.018668
vt 0.009334 0.018668
vt 0.990666 0.018668
vt 0.009334 0.018668
vt 0.990666 0.018668
vt 0.009334 0.018668
vt 0.990666 0.018668
vt 0.009334 0.018668
vt 0.433698 0.687500
vt 0.420852 0.687500
vt 0.472589 0.687500
vt 0.485485 0.687500
vt 0.625000 0.686311
vt 0.375000 0.686311
vt 0.593750 0.686311
vt 0.562500 0.686311
vt 0.531250 0.686311
vt 0.500000 0.686311
vt 0.468750 0.686311
vt 0.437500 0.686311
vt 0.406250 0.686311
vn 0.335371 0.880371 -0.335370
vn -0.000000 0.880371 -0.474285
vn -0.000009 0.000137 -1.000000
vn 0.706802 0.000074 -0.707412
vn -0.335370 0.880371 -0.335370
vn -0.706655 0.000108 -0.707558
vn -0.474285 0.880371 -0.000000
vn -1.000000 0.000028 -0.000332
vn -0.335371 0.880372 0.335369
vn -0.706529 -0.000006 0.707684
vn -0.000000 0.880372 0.474285
vn 0.000000 0.000000 1.000000
vn 0.335369 0.880372 0.335370
vn 0.706224 -0.000017 0.707989
vn 0.474285 0.880371 -0.000001
vn 1.000000 -0.000006 0.000279
vn 0.000000 1.000000 -0.000000
vn 0.000000 1.000000 0.000000
vn 0.000000 1.000000 0.000000
vn 0.000000 1.000000 -0.000000
vn -0.000000 1.000000 -0.000000
vn -0.000000 1.000000 0.000000
vn 0.000000 1.000000 0.000000
vn 0.000000 1.000000 -0.000000
vn -0.000000 0.879804 -0.475336
vn 0.336114 0.879804 -0.336114
vn 0.707107 0.000001 -0.707107
vn -0.000000 0.000001 -1.000000
vn -0.336113 0.879804 -0.336113
vn -0.707107 0.000000 -0.707107
vn -0.475336 0.879804 -0.000000
vn -1.000000 0.000000 -0.000000
vn -0.336114 0.879804 0.336113
vn -0.707107 0.000000 0.707107
vn -0.000000 0.879804 0.475337
vn 0.000000 0.000000 1.000000
vn 0.336114 0.879804 0.336114
vn 0.707107 0.000000 0.707107
vn 0.475336 0.879804 -0.000000
vn 1.000000 0.000000 0.000000
vn -0.000000 0.999787 -0.020653
vn 0.014604 0.999787 -0.014604
vn 0.062562 0.996078 -0.062561
vn -0.000000 0.996078 -0.088476
vn -0.014604 0.999787 -0.014604
vn -0.062562 0.996078 -0.062562
vn -0.020653 0.999787 -0.000000
vn -0.088476 0.996078 -0.000000
vn -0.014604 0.999787 0.014604
vn -0.062562 0.996078 0.062562
vn 0.000000 0.999787 0.020653
vn 0.000000 0.996078 0.088476
vn 0.014604 0.999787 0.014604
vn 0.062562 0.996078 0.062562
vn 0.020653 0.999787 0.000000
vn 0.088476 0.996078 0.000000
vn 0.707107 0.000001 -0.707107
vn -0.000000 0.000000 -1.000000
vn -0.707107 0.000000 -0.707107
vn -1.000000 0.000000 -0.000000
vn -0.707107 0.000000 0.707107
vn -0.000000 0.000000 1.000000
vn 0.707107 -0.000000 0.707107
vn 1.000000 0.000000 0.000000
vn 0.000000 -1.000000 0.000000
vn -0.000000 -1.000000 -0.000000
vn 0.000000 -1.000000 0.000000
vn 0.707106 -0.000000 -0.707107
vn -0.000000 -0.000000 -1.000000
vn -0.707107 0.000000 -0.707107
vn -1.000000 -0.000000 0.000000
vn -0.707107 0.000000 0.707107
vn 0.000000 0.000000 1.000000
vn 0.707107 -0.000000 0.707107
vn 1.000000 -0.000000 0.000000
vn 0.707107 0.000000 -0.707107
vn -0.000000 -0.000000 -1.000000
vn -0.707107 0.000000 -0.707107
vn -1.000000 0.000000 0.000000
vn -0.707107 0.000000 0.707107
vn -0.000000 -0.000000 1.000000
vn 0.707107 -0.000000 0.707107
vn 1.000000 -0.000000 0.000000
vn 0.583812 -0.564204 -0.583812
vn -0.000000 -0.564204 -0.825636
vn -0.583812 -0.564203 -0.583813
vn -0.825636 -0.564203 -0.000000
vn -0.583813 -0.564203 0.583813
vn -0.000000 -0.564203 0.825636
vn 0.583813 -0.564204 0.583813
vn 0.825635 -0.564204 -0.000002
vn 0.706832 0.000074 -0.707382
vn 1.000000 -0.000006 0.000334
vn 0.706218 -0.000017 0.707995
vn 0.000000 -0.000000 1.000000
vn -0.706525 -0.000006 0.707688
vn -1.000000 0.000029 -0.000281
vn -0.706673 0.000109 -0.707540
vn 0.000008 0.000137 -1.000000
vn -0.000000 -1.000000 -0.000000
vn -0.000000 -1.000000 -0.000000
vn -0.000000 -1.000000 -0.000000
vn -0.000000 -1.000000 -0.000000
vn 0.000000 -1.000000 0.000000
vn 0.000000 -1.000000 0.000000
vn 0.000000 -1.000000 0.000000
vn -0.000000 -1.000000 -0.000000
vn -0.000000 -1.000000 -0.000000
vn 0.000000 -1.000000 0.000000
vn -0.000000 -1.000000 -0.000000
vn -0.000000 -1.000000 -0.000000
vn -0.000000 -1.000000 -0.000000
vn -0.000000 -1.000000 -0.000000
vn 0.234099 0.943514 -0.234475
vn 0.000000 1.000000 0.000002
vn 0.331079 0.943603 0.000212
vn 0.000002 0.943745 -0.330674
vn 0.000000 1.000000 0.000000
vn -0.233767 0.943629 -0.234345
vn -0.330668 0.943747 -0.000194
vn 0.000000 1.000000 0.000001
vn 0.000000 1.000000 0.000000
vn 0.233089 0.943817 0.234263
vn -0.233744 0.943593 0.234512
vn -0.000000 0.943491 0.331399
s 1
g pCylinder1
usemtl initialShadingGroup
f 1/1/1 2/2/2 96/251/3 89/244/4
f 2/2/2 3/3/5 95/250/6 96/251/3
f 3/3/5 4/4/7 94/249/8 95/250/6
f 4/4/7 5/5/9 93/248/10 94/249/8
f 5/5/9 6/6/11 92/247/12 93/248/10
f 6/6/11 7/7/13 91/246/14 92/247/12
f 7/7/13 8/8/15 90/245/16 91/246/14
f 8/8/15 1/9/1 89/243/4 90/245/16
f 2/19/2 1/20/1 81/227/17 82/230/18
f 3/23/5 2/24/2 82/229/18 83/232/19
f 4/27/7 3/28/5 83/231/19 84/234/20
f 5/31/9 4/32/7 84/233/20 85/236/21
f 6/35/11 5/36/9 85/235/21 86/238/22
f 7/39/13 6/40/11 86/237/22 87/240/23
f 8/43/15 7/44/13 87/239/23 88/242/24
f 1/47/1 8/48/15 88/241/24 81/228/17
f 18/51/25 17/52/26 49/163/27 50/166/28
f 19/55/29 18/56/25 50/165/28 51/168/30
f 20/59/31 19/60/29 51/167/30 52/170/32
f 21/63/33 20/64/31 52/169/32 53/172/34
f 22/67/35 21/68/33 53/171/34 54/174/36
f 23/71/37 22/72/35 54/173/36 55/176/38
f 24/75/39 23/76/37 55/175/38 56/178/40
f 17/79/26 24/80/39 56/177/40 49/164/27
f 26/83/41 25/84/42 33/85/43 34/86/44
f 27/87/45 26/88/41 34/89/44 35/90/46
f 28/91/47 27/92/45 35/93/46 36/94/48
f 29/95/49 28/96/47 36/97/48 37/98/50
f 30/99/51 29/100/49 37/101/50 38/102/52
f 31/103/53 30/104/51 38/105/52 39/106/54
f 32/107/55 31/108/53 39/109/54 40/110/56
f 25/111/42 32/112/55 40/113/56 33/114/43
f 34/115/44 33/116/43 65/195/57 66/198/58
f 35/119/46 34/120/44 66/197/58 67/200/59
f 36/123/48 35/124/46 67/199/59 68/202/60
f 37/127/50 36/128/48 68/201/60 69/204/61
f 38/131/52 37/132/50 69/203/61 70/206/62
f 39/135/54 38/136/52 70/205/62 71/208/63
f 40/139/56 39/140/54 71/207/63 72/210/64
f 33/143/43 40/144/56 72/209/64 65/196/57
f 99/257/65 105/268/66 100/259/67
f 50/166/28 49/163/27 57/179/68 58/182/69
f 51/168/30 50/165/28 58/181/69 59/184/70
f 52/170/32 51/167/30 59/183/70 60/186/71
f 53/172/34 52/169/32 60/185/71 61/188/72
f 54/174/36 53/171/34 61/187/72 62/190/73
f 55/176/38 54/173/36 62/189/73 63/192/74
f 56/178/40 55/175/38 63/191/74 64/194/75
f 49/164/27 56/177/40 64/193/75 57/180/68
f 58/182/69 57/179/68 25/53/42 26/54/41
f 59/184/70 58/181/69 26/57/41 27/58/45
f 60/186/71 59/183/70 27/61/45 28/62/47
f 61/188/72 60/185/71 28/65/47 29/66/49
f 62/190/73 61/187/72 29/69/49 30/70/51
f 63/192/74 62/189/73 30/73/51 31/74/53
f 64/194/75 63/191/74 31/77/53 32/78/55
f 57/180/68 64/193/75 32/81/55 25/82/42
f 66/198/58 65/195/57 73/211/76 74/214/77
f 67/200/59 66/197/58 74/213/77 75/216/78
f 68/202/60 67/199/59 75/215/78 76/218/79
f 69/204/61 68/201/60 76/217/79 77/220/80
f 70/206/62 69/203/61 77/219/80 78/222/81
f 71/208/63 70/205/62 78/221/81 79/224/82
f 72/210/64 71/207/63 79/223/82 80/226/83
f 65/196/57 72/209/64 80/225/83 73/212/76
f 74/214/77 73/211/76 41/117/84 42/118/85
f 75/216/78 74/213/77 42/121/85 43/122/86
f 76/218/79 75/215/78 43/125/86 44/126/87
f 77/220/80 76/217/79 44/129/87 45/130/88
f 78/222/81 77/219/80 45/133/88 46/134/89
f 79/224/82 78/221/81 46/137/89 47/138/90
f 80/226/83 79/223/82 47/141/90 48/142/91
f 73/212/76 80/225/83 48/145/91 41/146/84
f 82/230/18 81/227/17 17/21/26 18/22/25
f 83/232/19 82/229/18 18/25/25 19/26/29
f 84/234/20 83/231/19 19/29/29 20/30/31
f 85/236/21 84/233/20 20/33/31 21/34/33
f 86/238/22 85/235/21 21/37/33 22/38/35
f 87/240/23 86/237/22 22/41/35 23/42/37
f 88/242/24 87/239/23 23/45/37 24/46/39
f 81/228/17 88/241/24 24/49/39 17/50/26
f 90/245/16 89/243/4 118/289/92 119/291/93
f 91/246/14 90/245/16 119/291/93 120/292/94
f 92/247/12 91/246/14 120/292/94 121/293/95
f 93/248/10 92/247/12 121/293/95 122/294/96
f 94/249/8 93/248/10 122/294/96 123/295/97
f 95/250/6 94/249/8 123/295/97 124/296/98
f 96/251/3 95/250/6 124/296/98 125/297/99
f 89/244/4 96/251/3 125/297/99 118/290/92
f 48/159/91 47/160/90 112/281/100 113/284/101
f 47/157/90 46/158/89 111/279/102 112/282/100
f 46/155/89 45/156/88 110/277/103 111/280/102
f 45/153/88 44/154/87 109/275/104 110/278/103
f 44/151/87 43/152/86 108/273/105 109/276/104
f 43/149/86 42/150/85 107/271/106 108/274/105
f 42/147/85 41/148/84 106/269/107 107/272/106
f 41/161/84 48/162/91 113/283/101 106/270/107
f 97/253/108 105/268/66 98/255/109
f 105/268/66 103/265/110 102/263/111
f 100/259/67 105/268/66 101/261/112
f 98/255/109 105/268/66 99/257/65
f 104/267/113 103/265/110 105/268/66
f 104/267/113 105/268/66 97/253/108
f 101/261/112 105/268/66 102/263/111
f 107/272/106 106/269/107 97/252/108 98/255/109
f 108/274/105 107/271/106 98/254/109 99/257/65
f 109/276/104 108/273/105 99/256/65 100/259/67
f 110/278/103 109/275/104 100/258/67 101/261/112
f 111/280/102 110/277/103 101/260/112 102/263/111
f 112/282/100 111/279/102 102/262/111 103/265/110
f 113/284/101 112/281/100 103/264/110 104/267/113
f 106/270/107 113/283/101 104/266/113 97/253/108
f 9/10/114 115/286/115 16/17/116
f 10/11/117 114/285/118 115/286/115 9/10/114
f 10/11/117 11/12/119 114/285/118
f 114/285/118 11/12/119 12/13/120 116/287/121
f 115/286/115 114/285/118 116/287/121 117/288/122
f 16/17/116 115/286/115 117/288/122 15/16/123
f 116/287/121 12/13/120 13/14/124
f 117/288/122 116/287/121 13/14/124 14/15/125
f 15/16/123 117/288/122 14/15/125
f 119/291/93 118/289/92 9/18/114 16/17/116
f 120/292/94 119/291/93 16/17/116 15/16/123
f 121/293/95 120/292/94 15/16/123 14/15/125
f 122/294/96 121/293/95 14/15/125 13/14/124
f 123/295/97 122/294/96 13/14/124 12/13/120
f 124/296/98 123/295/97 12/13/120 11/12/119
f 125/297/99 124/296/98 11/12/119 10/11/117
f 118/290/92 125/297/99 10/11/117 9/10/114
