# Blender 3.5.1
# www.blender.org
mtllib button.mtl
o Cylinder
v 0.000000 -0.220092 -0.415296
v 0.000000 0.220092 -0.357343
v 0.081020 -0.220092 -0.407316
v 0.069714 0.220092 -0.350477
v 0.158927 -0.220092 -0.383684
v 0.136749 0.220092 -0.330142
v 0.230726 -0.220092 -0.345306
v 0.198529 0.220092 -0.297120
v 0.293659 -0.220092 -0.293659
v 0.252680 0.220092 -0.252680
v 0.345306 -0.220092 -0.230726
v 0.297120 0.220092 -0.198529
v 0.383684 -0.220092 -0.158927
v 0.330142 0.220092 -0.136749
v 0.407316 -0.220092 -0.081020
v 0.350477 0.220092 -0.069714
v 0.415296 -0.220092 0.000000
v 0.357343 0.220092 0.000000
v 0.407316 -0.220092 0.081020
v 0.350477 0.220092 0.069714
v 0.383684 -0.220092 0.158927
v 0.330142 0.220092 0.136749
v 0.345306 -0.220092 0.230726
v 0.297120 0.220092 0.198529
v 0.293659 -0.220092 0.293659
v 0.252680 0.220092 0.252680
v 0.230726 -0.220092 0.345306
v 0.198529 0.220092 0.297120
v 0.158927 -0.220092 0.383684
v 0.136749 0.220092 0.330142
v 0.081020 -0.220092 0.407316
v 0.069714 0.220092 0.350477
v 0.000000 -0.220092 0.415296
v 0.000000 0.220092 0.357343
v -0.081020 -0.220092 0.407316
v -0.069714 0.220092 0.350477
v -0.158927 -0.220092 0.383684
v -0.136749 0.220092 0.330142
v -0.230726 -0.220092 0.345306
v -0.198529 0.220092 0.297120
v -0.293659 -0.220092 0.293659
v -0.252680 0.220092 0.252680
v -0.345306 -0.220092 0.230726
v -0.297120 0.220092 0.198529
v -0.383684 -0.220092 0.158927
v -0.330142 0.220092 0.136749
v -0.407316 -0.220092 0.081020
v -0.350477 0.220092 0.069714
v -0.415296 -0.220092 0.000000
v -0.357343 0.220092 0.000000
v -0.407316 -0.220092 -0.081020
v -0.350477 0.220092 -0.069714
v -0.383684 -0.220092 -0.158927
v -0.330142 0.220092 -0.136749
v -0.345306 -0.220092 -0.230726
v -0.297120 0.220092 -0.198529
v -0.293659 -0.220092 -0.293659
v -0.252680 0.220092 -0.252680
v -0.230726 -0.220092 -0.345306
v -0.198529 0.220092 -0.297120
v -0.158927 -0.220092 -0.383684
v -0.136749 0.220092 -0.330142
v -0.081020 -0.220092 -0.407316
v -0.069714 0.220092 -0.350477
v 0.081020 0.220092 -0.407316
v 0.000000 0.220092 -0.415296
v 0.158927 0.220092 -0.383684
v 0.230726 0.220092 -0.345306
v 0.293659 0.220092 -0.293659
v 0.345306 0.220092 -0.230726
v 0.383684 0.220092 -0.158927
v 0.407316 0.220092 -0.081020
v 0.415296 0.220092 0.000000
v 0.407316 0.220092 0.081020
v 0.383684 0.220092 0.158927
v 0.345306 0.220092 0.230726
v 0.293659 0.220092 0.293659
v 0.230726 0.220092 0.345306
v 0.158927 0.220092 0.383684
v 0.081020 0.220092 0.407316
v 0.000000 0.220092 0.415296
v -0.081020 0.220092 0.407316
v -0.158927 0.220092 0.383684
v -0.230726 0.220092 0.345306
v -0.293659 0.220092 0.293659
v -0.345306 0.220092 0.230726
v -0.383684 0.220092 0.158927
v -0.407316 0.220092 0.081020
v -0.415296 0.220092 0.000000
v -0.407316 0.220092 -0.081020
v -0.383684 0.220092 -0.158927
v -0.345306 0.220092 -0.230726
v -0.293659 0.220092 -0.293659
v -0.230726 0.220092 -0.345306
v -0.158927 0.220092 -0.383684
v -0.081020 0.220092 -0.407316
v 0.074392 0.220092 -0.373993
v 0.000000 0.220092 -0.381320
v 0.145925 0.220092 -0.352294
v 0.211850 0.220092 -0.317056
v 0.269634 0.220092 -0.269634
v 0.317056 0.220092 -0.211850
v 0.352294 0.220092 -0.145925
v 0.373993 0.220092 -0.074392
v 0.381320 0.220092 0.000000
v 0.373993 0.220092 0.074392
v 0.352294 0.220092 0.145925
v 0.317056 0.220092 0.211850
v 0.269634 0.220092 0.269634
v 0.211850 0.220092 0.317056
v 0.145925 0.220092 0.352294
v 0.074392 0.220092 0.373993
v 0.000000 0.220092 0.381320
v -0.074392 0.220092 0.373993
v -0.145925 0.220092 0.352294
v -0.211850 0.220092 0.317056
v -0.269634 0.220092 0.269634
v -0.317056 0.220092 0.211850
v -0.352294 0.220092 0.145925
v -0.373993 0.220092 0.074392
v -0.381320 0.220092 0.000000
v -0.373993 0.220092 -0.074392
v -0.352294 0.220092 -0.145925
v -0.317056 0.220092 -0.211850
v -0.269634 0.220092 -0.269634
v -0.211850 0.220092 -0.317056
v -0.145925 0.220092 -0.352294
v -0.074392 0.220092 -0.373993
v 0.074392 -0.083408 -0.373993
v 0.000000 -0.083408 -0.381320
v 0.145925 -0.083408 -0.352294
v 0.211850 -0.083408 -0.317056
v 0.269634 -0.083408 -0.269634
v 0.317056 -0.083408 -0.211850
v 0.352294 -0.083408 -0.145925
v 0.373993 -0.083408 -0.074392
v 0.381320 -0.083408 0.000000
v 0.373993 -0.083408 0.074392
v 0.352294 -0.083408 0.145925
v 0.317056 -0.083408 0.211850
v 0.269634 -0.083408 0.269634
v 0.211850 -0.083408 0.317056
v 0.145925 -0.083408 0.352294
v 0.074392 -0.083408 0.373993
v 0.000000 -0.083408 0.381320
v -0.074392 -0.083408 0.373993
v -0.145925 -0.083408 0.352294
v -0.211850 -0.083408 0.317056
v -0.269634 -0.083408 0.269634
v -0.317056 -0.083408 0.211850
v -0.352294 -0.083408 0.145925
v -0.373993 -0.083408 0.074392
v -0.381320 -0.083408 0.000000
v -0.373993 -0.083408 -0.074392
v -0.352294 -0.083408 -0.145925
v -0.317056 -0.083408 -0.211850
v -0.269634 -0.083408 -0.269634
v -0.211850 -0.083408 -0.317056
v -0.145925 -0.083408 -0.352294
v -0.074392 -0.083408 -0.373993
v 0.069714 -0.083408 -0.350477
v 0.000000 -0.083408 -0.357343
v 0.136749 -0.083408 -0.330142
v 0.198529 -0.083408 -0.297120
v 0.252680 -0.083408 -0.252680
v 0.297120 -0.083408 -0.198529
v 0.330142 -0.083408 -0.136749
v 0.350477 -0.083408 -0.069714
v 0.357343 -0.083408 0.000000
v 0.350477 -0.083408 0.069714
v 0.330142 -0.083408 0.136749
v 0.297120 -0.083408 0.198529
v 0.252680 -0.083408 0.252680
v 0.198529 -0.083408 0.297120
v 0.136749 -0.083408 0.330142
v 0.069714 -0.083408 0.350477
v 0.000000 -0.083408 0.357343
v -0.069714 -0.083408 0.350477
v -0.136749 -0.083408 0.330142
v -0.198529 -0.083408 0.297120
v -0.252680 -0.083408 0.252680
v -0.297120 -0.083408 0.198529
v -0.330142 -0.083408 0.136749
v -0.350477 -0.083408 0.069714
v -0.357343 -0.083408 0.000000
v -0.350477 -0.083408 -0.069714
v -0.330142 -0.083408 -0.136749
v -0.297120 -0.083408 -0.198529
v -0.252680 -0.083408 -0.252680
v -0.198529 -0.083408 -0.297120
v -0.136749 -0.083408 -0.330142
v -0.069714 -0.083408 -0.350477
vn -0.0000 -0.0000 -1.0000
vn 0.1951 -0.0000 -0.9808
vn 0.3827 -0.0000 -0.9239
vn 0.5556 -0.0000 -0.8315
vn 0.7071 -0.0000 -0.7071
vn 0.8315 -0.0000 -0.5556
vn 0.9239 -0.0000 -0.3827
vn 0.9808 -0.0000 -0.1951
vn 1.0000 -0.0000 -0.0000
vn 0.9808 -0.0000 0.1951
vn 0.9239 -0.0000 0.3827
vn 0.8315 -0.0000 0.5556
vn 0.7071 -0.0000 0.7071
vn 0.5556 -0.0000 0.8315
vn 0.3827 -0.0000 0.9239
vn 0.1951 -0.0000 0.9808
vn -0.0000 -0.0000 1.0000
vn -0.1951 -0.0000 0.9808
vn -0.3827 -0.0000 0.9239
vn -0.5556 -0.0000 0.8315
vn -0.7071 -0.0000 0.7071
vn -0.8315 -0.0000 0.5556
vn -0.9239 -0.0000 0.3827
vn -0.9808 -0.0000 0.1951
vn -1.0000 -0.0000 -0.0000
vn -0.9808 -0.0000 -0.1951
vn -0.9239 -0.0000 -0.3827
vn -0.8315 -0.0000 -0.5556
vn -0.7071 -0.0000 -0.7071
vn -0.5556 -0.0000 -0.8315
vn -0.3827 -0.0000 -0.9239
vn -0.1951 -0.0000 -0.9808
vn -0.0000 -1.0000 -0.0000
vn -0.0000 1.0000 -0.0000
vt 1.000000 0.500000
vt 0.000000 0.500000
vt 0.750000 0.490000
vt 0.250000 0.456509
vt 0.968750 0.500000
vt 0.796822 0.485388
vt 0.290288 0.452541
vt 0.937500 0.500000
vt 0.841844 0.471731
vt 0.329027 0.440789
vt 0.906250 0.500000
vt 0.883337 0.449553
vt 0.364730 0.421706
vt 0.875000 0.500000
vt 0.919706 0.419706
vt 0.396024 0.396024
vt 0.843750 0.500000
vt 0.949553 0.383337
vt 0.421706 0.364730
vt 0.812500 0.500000
vt 0.971731 0.341844
vt 0.440789 0.329028
vt 0.781250 0.500000
vt 0.985388 0.296822
vt 0.452541 0.290288
vt 0.750000 0.500000
vt 0.990000 0.250000
vt 0.456509 0.250000
vt 0.718750 0.500000
vt 0.985388 0.203178
vt 0.452541 0.209712
vt 0.687500 0.500000
vt 0.971731 0.158156
vt 0.440789 0.170972
vt 0.656250 0.500000
vt 0.949553 0.116663
vt 0.421706 0.135270
vt 0.625000 0.500000
vt 0.919706 0.080294
vt 0.396024 0.103976
vt 0.593750 0.500000
vt 0.883337 0.050447
vt 0.364730 0.078294
vt 0.562500 0.500000
vt 0.841844 0.028269
vt 0.329028 0.059211
vt 0.531250 0.500000
vt 0.796822 0.014612
vt 0.290288 0.047459
vt 0.500000 0.500000
vt 0.750000 0.010000
vt 0.250000 0.043491
vt 0.468750 0.500000
vt 0.703178 0.014612
vt 0.209712 0.047459
vt 0.437500 0.500000
vt 0.658156 0.028269
vt 0.170972 0.059211
vt 0.406250 0.500000
vt 0.616663 0.050447
vt 0.135270 0.078294
vt 0.375000 0.500000
vt 0.580294 0.080294
vt 0.103976 0.103976
vt 0.343750 0.500000
vt 0.550447 0.116663
vt 0.078294 0.135270
vt 0.312500 0.500000
vt 0.528269 0.158156
vt 0.059211 0.170972
vt 0.281250 0.500000
vt 0.514612 0.203178
vt 0.047459 0.209712
vt 0.250000 0.500000
vt 0.510000 0.250000
vt 0.043491 0.250000
vt 0.218750 0.500000
vt 0.514612 0.296822
vt 0.047459 0.290288
vt 0.187500 0.500000
vt 0.528269 0.341844
vt 0.059211 0.329027
vt 0.156250 0.500000
vt 0.550447 0.383337
vt 0.078294 0.364730
vt 0.125000 0.500000
vt 0.580294 0.419706
vt 0.103976 0.396024
vt 0.093750 0.500000
vt 0.616663 0.449553
vt 0.135270 0.421706
vt 0.062500 0.500000
vt 0.658156 0.471731
vt 0.170972 0.440789
vt 0.031250 0.500000
vt 0.703178 0.485388
vt 0.209712 0.452541
vt 0.968750 1.000000
vt 0.296822 0.485388
vt 1.000000 1.000000
vt 0.000000 1.000000
vt 0.250000 0.490000
vt 0.937500 1.000000
vt 0.341844 0.471731
vt 0.906250 1.000000
vt 0.383337 0.449553
vt 0.875000 1.000000
vt 0.419706 0.419706
vt 0.843750 1.000000
vt 0.449553 0.383337
vt 0.812500 1.000000
vt 0.471731 0.341844
vt 0.781250 1.000000
vt 0.485388 0.296822
vt 0.750000 1.000000
vt 0.490000 0.250000
vt 0.718750 1.000000
vt 0.485388 0.203178
vt 0.687500 1.000000
vt 0.471731 0.158156
vt 0.656250 1.000000
vt 0.449553 0.116663
vt 0.625000 1.000000
vt 0.419706 0.080294
vt 0.593750 1.000000
vt 0.383337 0.050447
vt 0.562500 1.000000
vt 0.341844 0.028269
vt 0.531250 1.000000
vt 0.296822 0.014612
vt 0.500000 1.000000
vt 0.250000 0.010000
vt 0.468750 1.000000
vt 0.203178 0.014612
vt 0.437500 1.000000
vt 0.158156 0.028269
vt 0.406250 1.000000
vt 0.116663 0.050447
vt 0.375000 1.000000
vt 0.080294 0.080294
vt 0.343750 1.000000
vt 0.050447 0.116663
vt 0.312500 1.000000
vt 0.028269 0.158156
vt 0.281250 1.000000
vt 0.014612 0.203178
vt 0.250000 1.000000
vt 0.010000 0.250000
vt 0.218750 1.000000
vt 0.014612 0.296822
vt 0.187500 1.000000
vt 0.028269 0.341844
vt 0.156250 1.000000
vt 0.050447 0.383337
vt 0.125000 1.000000
vt 0.080294 0.419706
vt 0.093750 1.000000
vt 0.116663 0.449553
vt 0.062500 1.000000
vt 0.158156 0.471731
vt 0.031250 1.000000
vt 0.203178 0.485388
vt 0.292991 0.466131
vt 0.250000 0.470365
vt 0.334330 0.453591
vt 0.372428 0.433227
vt 0.405822 0.405822
vt 0.433227 0.372428
vt 0.453591 0.334330
vt 0.466131 0.292991
vt 0.470365 0.250000
vt 0.466131 0.207009
vt 0.453591 0.165670
vt 0.433227 0.127572
vt 0.405822 0.094178
vt 0.372428 0.066773
vt 0.334330 0.046409
vt 0.292991 0.033869
vt 0.250000 0.029635
vt 0.207009 0.033869
vt 0.165670 0.046409
vt 0.127572 0.066773
vt 0.094178 0.094178
vt 0.066773 0.127572
vt 0.046409 0.165670
vt 0.033869 0.207009
vt 0.029635 0.250000
vt 0.033869 0.292991
vt 0.046409 0.334330
vt 0.066773 0.372428
vt 0.094178 0.405822
vt 0.127572 0.433227
vt 0.165670 0.453591
vt 0.207009 0.466131
vt 0.292991 0.466131
vt 0.250000 0.470365
vt 0.334330 0.453591
vt 0.372428 0.433227
vt 0.405822 0.405822
vt 0.433227 0.372428
vt 0.453591 0.334330
vt 0.466131 0.292991
vt 0.470365 0.250000
vt 0.466131 0.207009
vt 0.453591 0.165670
vt 0.433227 0.127572
vt 0.405822 0.094178
vt 0.372428 0.066773
vt 0.334330 0.046409
vt 0.292991 0.033869
vt 0.250000 0.029635
vt 0.207009 0.033869
vt 0.165670 0.046409
vt 0.127572 0.066773
vt 0.094178 0.094178
vt 0.066773 0.127572
vt 0.046409 0.165670
vt 0.033869 0.207009
vt 0.029635 0.250000
vt 0.033869 0.292991
vt 0.046409 0.334330
vt 0.066773 0.372428
vt 0.094178 0.405822
vt 0.127572 0.433227
vt 0.165670 0.453591
vt 0.207009 0.466131
vt 0.290288 0.452541
vt 0.250000 0.456509
vt 0.329027 0.440789
vt 0.364730 0.421706
vt 0.396024 0.396024
vt 0.421706 0.364730
vt 0.440789 0.329028
vt 0.452541 0.290288
vt 0.456509 0.250000
vt 0.452541 0.209712
vt 0.440789 0.170972
vt 0.421706 0.135270
vt 0.396024 0.103976
vt 0.364730 0.078294
vt 0.329028 0.059211
vt 0.290288 0.047459
vt 0.250000 0.043491
vt 0.209712 0.047459
vt 0.170972 0.059211
vt 0.135270 0.078294
vt 0.103976 0.103976
vt 0.078294 0.135270
vt 0.059211 0.170972
vt 0.047459 0.209712
vt 0.043491 0.250000
vt 0.047459 0.290288
vt 0.059211 0.329027
vt 0.078294 0.364730
vt 0.103976 0.396024
vt 0.135270 0.421706
vt 0.170972 0.440789
vt 0.209712 0.452541
s 1
usemtl black
f 1/1/1 66/100/1 65/98/2 3/5/2
f 3/5/2 65/98/2 67/103/3 5/8/3
f 5/8/3 67/103/3 68/105/4 7/11/4
f 7/11/4 68/105/4 69/107/5 9/14/5
f 9/14/5 69/107/5 70/109/6 11/17/6
f 11/17/6 70/109/6 71/111/7 13/20/7
f 13/20/7 71/111/7 72/113/8 15/23/8
f 15/23/8 72/113/8 73/115/9 17/26/9
f 17/26/9 73/115/9 74/117/10 19/29/10
f 19/29/10 74/117/10 75/119/11 21/32/11
f 21/32/11 75/119/11 76/121/12 23/35/12
f 23/35/12 76/121/12 77/123/13 25/38/13
f 25/38/13 77/123/13 78/125/14 27/41/14
f 27/41/14 78/125/14 79/127/15 29/44/15
f 29/44/15 79/127/15 80/129/16 31/47/16
f 31/47/16 80/129/16 81/131/17 33/50/17
f 33/50/17 81/131/17 82/133/18 35/53/18
f 35/53/18 82/133/18 83/135/19 37/56/19
f 37/56/19 83/135/19 84/137/20 39/59/20
f 39/59/20 84/137/20 85/139/21 41/62/21
f 41/62/21 85/139/21 86/141/22 43/65/22
f 43/65/22 86/141/22 87/143/23 45/68/23
f 45/68/23 87/143/23 88/145/24 47/71/24
f 47/71/24 88/145/24 89/147/25 49/74/25
f 49/74/25 89/147/25 90/149/26 51/77/26
f 51/77/26 90/149/26 91/151/27 53/80/27
f 53/80/27 91/151/27 92/153/28 55/83/28
f 55/83/28 92/153/28 93/155/29 57/86/29
f 57/86/29 93/155/29 94/157/30 59/89/30
f 59/89/30 94/157/30 95/159/31 61/92/31
f 61/92/31 95/159/31 96/161/32 63/95/32
f 63/95/32 96/161/32 66/101/1 1/2/1
f 1/3/33 3/6/33 5/9/33 7/12/33 9/15/33 11/18/33 13/21/33 15/24/33 17/27/33 19/30/33 21/33/33 23/36/33 25/39/33 27/42/33 29/45/33 31/48/33 33/51/33 35/54/33 37/57/33 39/60/33 41/63/33 43/66/33 45/69/33 47/72/33 49/75/33 51/78/33 53/81/33 55/84/33 57/87/33 59/90/33 61/93/33 63/96/33
f 98/164/34 97/163/34 65/99/34 66/102/34
f 97/163/34 99/165/34 67/104/34 65/99/34
f 99/165/34 100/166/34 68/106/34 67/104/34
f 100/166/34 101/167/34 69/108/34 68/106/34
f 101/167/34 102/168/34 70/110/34 69/108/34
f 102/168/34 103/169/34 71/112/34 70/110/34
f 103/169/34 104/170/34 72/114/34 71/112/34
f 104/170/34 105/171/34 73/116/34 72/114/34
f 105/171/34 106/172/34 74/118/34 73/116/34
f 106/172/34 107/173/34 75/120/34 74/118/34
f 107/173/34 108/174/34 76/122/34 75/120/34
f 108/174/34 109/175/34 77/124/34 76/122/34
f 109/175/34 110/176/34 78/126/34 77/124/34
f 110/176/34 111/177/34 79/128/34 78/126/34
f 111/177/34 112/178/34 80/130/34 79/128/34
f 112/178/34 113/179/34 81/132/34 80/130/34
f 113/179/34 114/180/34 82/134/34 81/132/34
f 114/180/34 115/181/34 83/136/34 82/134/34
f 115/181/34 116/182/34 84/138/34 83/136/34
f 116/182/34 117/183/34 85/140/34 84/138/34
f 117/183/34 118/184/34 86/142/34 85/140/34
f 118/184/34 119/185/34 87/144/34 86/142/34
f 119/185/34 120/186/34 88/146/34 87/144/34
f 120/186/34 121/187/34 89/148/34 88/146/34
f 121/187/34 122/188/34 90/150/34 89/148/34
f 122/188/34 123/189/34 91/152/34 90/150/34
f 123/189/34 124/190/34 92/154/34 91/152/34
f 124/190/34 125/191/34 93/156/34 92/154/34
f 125/191/34 126/192/34 94/158/34 93/156/34
f 126/192/34 127/193/34 95/160/34 94/158/34
f 127/193/34 128/194/34 96/162/34 95/160/34
f 128/194/34 98/164/34 66/102/34 96/162/34
f 30/46/15 32/49/16 176/242/16 175/241/15
f 123/189/11 122/188/10 154/220/10 155/221/11
f 28/43/14 30/46/15 175/241/15 174/240/14
f 122/188/10 121/187/9 153/219/9 154/220/10
f 26/40/13 28/43/14 174/240/14 173/239/13
f 121/187/9 120/186/8 152/218/8 153/219/9
f 24/37/12 26/40/13 173/239/13 172/238/12
f 120/186/8 119/185/7 151/217/7 152/218/8
f 22/34/11 24/37/12 172/238/12 171/237/11
f 119/185/7 118/184/6 150/216/6 151/217/7
f 20/31/10 22/34/11 171/237/11 170/236/10
f 118/184/6 117/183/5 149/215/5 150/216/6
f 18/28/9 20/31/10 170/236/10 169/235/9
f 117/183/5 116/182/4 148/214/4 149/215/5
f 16/25/8 18/28/9 169/235/9 168/234/8
f 116/182/4 115/181/3 147/213/3 148/214/4
f 14/22/7 16/25/8 168/234/8 167/233/7
f 115/181/3 114/180/2 146/212/2 147/213/3
f 12/19/6 14/22/7 167/233/7 166/232/6
f 64/97/32 2/4/1 162/228/1 192/258/32
f 114/180/2 113/179/1 145/211/1 146/212/2
f 10/16/5 12/19/6 166/232/6 165/231/5
f 62/94/31 64/97/32 192/258/32 191/257/31
f 113/179/1 112/178/32 144/210/32 145/211/1
f 8/13/4 10/16/5 165/231/5 164/230/4
f 60/91/30 62/94/31 191/257/31 190/256/30
f 112/178/32 111/177/31 143/209/31 144/210/32
f 6/10/3 8/13/4 164/230/4 163/229/3
f 58/88/29 60/91/30 190/256/30 189/255/29
f 111/177/31 110/176/30 142/208/30 143/209/31
f 4/7/2 6/10/3 163/229/3 161/227/2
f 56/85/28 58/88/29 189/255/29 188/254/28
f 162/228/34 161/227/34 129/195/34 130/196/34
f 161/227/34 163/229/34 131/197/34 129/195/34
f 163/229/34 164/230/34 132/198/34 131/197/34
f 164/230/34 165/231/34 133/199/34 132/198/34
f 165/231/34 166/232/34 134/200/34 133/199/34
f 166/232/34 167/233/34 135/201/34 134/200/34
f 167/233/34 168/234/34 136/202/34 135/201/34
f 168/234/34 169/235/34 137/203/34 136/202/34
f 169/235/34 170/236/34 138/204/34 137/203/34
f 170/236/34 171/237/34 139/205/34 138/204/34
f 171/237/34 172/238/34 140/206/34 139/205/34
f 172/238/34 173/239/34 141/207/34 140/206/34
f 173/239/34 174/240/34 142/208/34 141/207/34
f 174/240/34 175/241/34 143/209/34 142/208/34
f 175/241/34 176/242/34 144/210/34 143/209/34
f 176/242/34 177/243/34 145/211/34 144/210/34
f 177/243/34 178/244/34 146/212/34 145/211/34
f 178/244/34 179/245/34 147/213/34 146/212/34
f 179/245/34 180/246/34 148/214/34 147/213/34
f 180/246/34 181/247/34 149/215/34 148/214/34
f 181/247/34 182/248/34 150/216/34 149/215/34
f 182/248/34 183/249/34 151/217/34 150/216/34
f 183/249/34 184/250/34 152/218/34 151/217/34
f 184/250/34 185/251/34 153/219/34 152/218/34
f 185/251/34 186/252/34 154/220/34 153/219/34
f 186/252/34 187/253/34 155/221/34 154/220/34
f 187/253/34 188/254/34 156/222/34 155/221/34
f 188/254/34 189/255/34 157/223/34 156/222/34
f 189/255/34 190/256/34 158/224/34 157/223/34
f 190/256/34 191/257/34 159/225/34 158/224/34
f 191/257/34 192/258/34 160/226/34 159/225/34
f 192/258/34 162/228/34 130/196/34 160/226/34
f 124/190/12 123/189/11 155/221/11 156/222/12
f 97/163/18 98/164/17 130/196/17 129/195/18
f 32/49/16 34/52/17 177/243/17 176/242/16
f 125/191/13 124/190/12 156/222/12 157/223/13
f 99/165/19 97/163/18 129/195/18 131/197/19
f 34/52/17 36/55/18 178/244/18 177/243/17
f 126/192/14 125/191/13 157/223/13 158/224/14
f 100/166/20 99/165/19 131/197/19 132/198/20
f 36/55/18 38/58/19 179/245/19 178/244/18
f 127/193/15 126/192/14 158/224/14 159/225/15
f 101/167/21 100/166/20 132/198/20 133/199/21
f 38/58/19 40/61/20 180/246/20 179/245/19
f 128/194/16 127/193/15 159/225/15 160/226/16
f 102/168/22 101/167/21 133/199/21 134/200/22
f 40/61/20 42/64/21 181/247/21 180/246/20
f 98/164/17 128/194/16 160/226/16 130/196/17
f 103/169/23 102/168/22 134/200/22 135/201/23
f 42/64/21 44/67/22 182/248/22 181/247/21
f 104/170/24 103/169/23 135/201/23 136/202/24
f 44/67/22 46/70/23 183/249/23 182/248/22
f 105/171/25 104/170/24 136/202/24 137/203/25
f 46/70/23 48/73/24 184/250/24 183/249/23
f 106/172/26 105/171/25 137/203/25 138/204/26
f 48/73/24 50/76/25 185/251/25 184/250/24
f 107/173/27 106/172/26 138/204/26 139/205/27
f 50/76/25 52/79/26 186/252/26 185/251/25
f 108/174/28 107/173/27 139/205/27 140/206/28
f 52/79/26 54/82/27 187/253/27 186/252/26
f 109/175/29 108/174/28 140/206/28 141/207/29
f 54/82/27 56/85/28 188/254/28 187/253/27
f 2/4/1 4/7/2 161/227/2 162/228/1
f 110/176/30 109/175/29 141/207/29 142/208/30
o Cube
v -0.202308 0.250576 0.202308
v -0.202308 0.219488 0.202308
v 0.000000 0.250576 -0.202308
v 0.000000 0.219488 -0.202308
v 0.202308 0.250576 0.202308
v 0.202308 0.219488 0.202308
v 0.000000 0.250576 -0.202308
v 0.000000 0.219488 -0.202308
vn -0.8944 -0.0000 -0.4472
vn -0.0000 -1.0000 -0.0000
vn 0.8944 -0.0000 -0.4472
vn -0.0000 -0.0000 1.0000
vn -0.0000 1.0000 -0.0000
vt 0.375000 0.000000
vt 0.375000 1.000000
vt 0.125000 0.750000
vt 0.625000 0.000000
vt 0.625000 1.000000
vt 0.875000 0.750000
vt 0.375000 0.250000
vt 0.125000 0.500000
vt 0.625000 0.250000
vt 0.875000 0.500000
vt 0.375000 0.750000
vt 0.625000 0.750000
vt 0.375000 0.500000
vt 0.625000 0.500000
s 0
usemtl white
f 193/259/35 195/265/35 196/267/35 194/262/35
f 195/265/36 199/271/36 200/272/36 196/267/36
f 199/271/37 197/269/37 198/270/37 200/272/37
f 197/269/38 193/260/38 194/263/38 198/270/38
f 195/266/39 193/261/39 197/269/39 199/271/39
f 200/272/36 198/270/36 194/264/36 196/268/36
o Cylinder.001
v 0.000000 0.220092 -0.357343
v 0.069714 0.220092 -0.350477
v 0.136749 0.220092 -0.330142
v 0.198529 0.220092 -0.297120
v 0.252680 0.220092 -0.252680
v 0.297120 0.220092 -0.198529
v 0.330142 0.220092 -0.136749
v 0.350477 0.220092 -0.069714
v 0.357343 0.220092 0.000000
v 0.350477 0.220092 0.069714
v 0.330142 0.220092 0.136749
v 0.297120 0.220092 0.198529
v 0.252680 0.220092 0.252680
v 0.198529 0.220092 0.297120
v 0.136749 0.220092 0.330142
v 0.069714 0.220092 0.350477
v 0.000000 0.220092 0.357343
v -0.069714 0.220092 0.350477
v -0.136749 0.220092 0.330142
v -0.198529 0.220092 0.297120
v -0.252680 0.220092 0.252680
v -0.297120 0.220092 0.198529
v -0.330142 0.220092 0.136749
v -0.350477 0.220092 0.069714
v -0.357343 0.220092 0.000000
v -0.350477 0.220092 -0.069714
v -0.330142 0.220092 -0.136749
v -0.297120 0.220092 -0.198529
v -0.252680 0.220092 -0.252680
v -0.198529 0.220092 -0.297120
v -0.136749 0.220092 -0.330142
v -0.069714 0.220092 -0.350477
vn -0.0000 1.0000 -0.0000
vt 0.250000 0.456509
vt 0.290288 0.452541
vt 0.329027 0.440789
vt 0.364730 0.421706
vt 0.396024 0.396024
vt 0.421706 0.364730
vt 0.440789 0.329028
vt 0.452541 0.290288
vt 0.456509 0.250000
vt 0.452541 0.209712
vt 0.440789 0.170972
vt 0.421706 0.135270
vt 0.396024 0.103976
vt 0.364730 0.078294
vt 0.329028 0.059211
vt 0.290288 0.047459
vt 0.250000 0.043491
vt 0.209712 0.047459
vt 0.170972 0.059211
vt 0.135270 0.078294
vt 0.103976 0.103976
vt 0.078294 0.135270
vt 0.059211 0.170972
vt 0.047459 0.209712
vt 0.043491 0.250000
vt 0.047459 0.290288
vt 0.059211 0.329027
vt 0.078294 0.364730
vt 0.103976 0.396024
vt 0.135270 0.421706
vt 0.170972 0.440789
vt 0.209712 0.452541
s 0
usemtl grey
f 202/274/40 201/273/40 232/304/40 231/303/40 230/302/40 229/301/40 228/300/40 227/299/40 226/298/40 225/297/40 224/296/40 223/295/40 222/294/40 221/293/40 220/292/40 219/291/40 218/290/40 217/289/40 216/288/40 215/287/40 214/286/40 213/285/40 212/284/40 211/283/40 210/282/40 209/281/40 208/280/40 207/279/40 206/278/40 205/277/40 204/276/40 203/275/40
